<svg width="32" height="32" viewBox="0 0 32 32" fill="none" xmlns="http://www.w3.org/2000/svg">
  <rect width="32" height="32" rx="8" fill="#F6851B"/>
  <path d="M26.5 6L17.5 12.5L19.2 8.5L26.5 6Z" fill="#E2761B" stroke="#E2761B" stroke-width="0.1"/>
  <path d="M5.5 6L14.4 12.6L12.8 8.5L5.5 6Z" fill="#E4761B" stroke="#E4761B" stroke-width="0.1"/>
  <path d="M23.1 21.8L20.8 25.5L26 26.9L27.4 22L23.1 21.8Z" fill="#E4761B" stroke="#E4761B" stroke-width="0.1"/>
  <path d="M4.6 22L6 26.9L11.2 25.5L8.9 21.8L4.6 22Z" fill="#E4761B" stroke="#E4761B" stroke-width="0.1"/>
  <path d="M10.9 14.3L9.5 16.5L14.6 16.7L14.4 11.2L10.9 14.3Z" fill="#E4761B" stroke="#E4761B" stroke-width="0.1"/>
  <path d="M21.1 14.3L17.5 11.1L17.4 16.7L22.5 16.5L21.1 14.3Z" fill="#E4761B" stroke="#E4761B" stroke-width="0.1"/>
  <path d="M11.2 25.5L14.2 24L11.6 22.1L11.2 25.5Z" fill="#E4761B" stroke="#E4761B" stroke-width="0.1"/>
  <path d="M17.8 24L20.8 25.5L20.4 22.1L17.8 24Z" fill="#E4761B" stroke="#E4761B" stroke-width="0.1"/>
  <path d="M20.8 25.5L17.8 24L18 26.3L17.9 27.8L20.8 25.5Z" fill="#D7C1B3" stroke="#D7C1B3" stroke-width="0.1"/>
  <path d="M11.2 25.5L14.1 27.8L14 26.3L14.2 24L11.2 25.5Z" fill="#D7C1B3" stroke="#D7C1B3" stroke-width="0.1"/>
  <path d="M14.2 19.8L11.7 19.1L13.4 18.3L14.2 19.8Z" fill="#233447" stroke="#233447" stroke-width="0.1"/>
  <path d="M17.8 19.8L18.6 18.3L20.3 19.1L17.8 19.8Z" fill="#233447" stroke="#233447" stroke-width="0.1"/>
  <path d="M11.2 25.5L11.6 21.8L8.9 21.9L11.2 25.5Z" fill="#CD6116" stroke="#CD6116" stroke-width="0.1"/>
  <path d="M20.4 21.8L20.8 25.5L23.1 21.9L20.4 21.8Z" fill="#CD6116" stroke="#CD6116" stroke-width="0.1"/>
  <path d="M22.5 16.5L17.4 16.7L17.8 19.8L18.6 18.3L20.3 19.1L22.5 16.5Z" fill="#CD6116" stroke="#CD6116" stroke-width="0.1"/>
  <path d="M11.7 19.1L13.4 18.3L14.2 19.8L14.6 16.7L9.5 16.5L11.7 19.1Z" fill="#CD6116" stroke="#CD6116" stroke-width="0.1"/>
</svg>
